# xmcd
#
# Track frame offsets:
#	150
#	16332
#	28101
#	43290
#	56326
#	76188
#	90359
#	104225
#	118028
#	135944
#	152126
#	167526
#	189899
#	205407
#	218552
#
# Disc length: 3153 seconds
#
# Revision: 1
# Processed by: cddbd v1.5.2PL0 Copyright (c) Steve Scherf et al.
# Submitted via: EasyCDDAExtractor 10.2.0.1
#
DISCID=be0c4f0f
DTITLE=sinfónica de coyuca - coleccion instrumental 2
DYEAR=1900
DGENRE=Instrumental
TTITLE0=flauta de pan
TTITLE1=el amor es triste
TTITLE2=bilitis
TTITLE3=balada para adelina
TTITLE4=llamo para decirte que te amo
TTITLE5=emanuel
TTITLE6=tema de nadia
TTITLE7=concierto de aranjuéz
TTITLE8=antes de la lluvia
TTITLE9=navajo azul
TTITLE10=carros de fuego
TTITLE11=pidela altiempo quevuelva
TTITLE12=guantanamera
TTITLE13=un extraño en la playa
TTITLE14=morir de amor
EXTD=
EXTT0=
EXTT1=
EXTT2=
EXTT3=
EXTT4=
EXTT5=
EXTT6=
EXTT7=
EXTT8=
EXTT9=
EXTT10=
EXTT11=
EXTT12=
EXTT13=
EXTT14=
PLAYORDER=
